<svg width="2000" height="1000" viewBox="0 0 2000 1000" fill="none" xmlns="http://www.w3.org/2000/svg">
<mask id="path-1-inside-1_1_30" fill="white">
<path d="M500 -1.43051e-06C565.661 -1.43051e-06 630.679 12.9329 691.342 38.0602C752.004 63.1876 807.124 100.017 853.553 146.447C899.983 192.876 936.812 247.995 961.94 308.658C987.067 369.321 1000 434.339 1000 500C1000 565.661 987.067 630.679 961.94 691.342C936.812 752.004 899.983 807.124 853.553 853.553C807.124 899.983 752.004 936.812 691.342 961.94C630.679 987.067 565.661 1000 500 1000L500 500L500 -1.43051e-06Z"/>
</mask>
<path d="M500 -1.43051e-06C565.661 -1.43051e-06 630.679 12.9329 691.342 38.0602C752.004 63.1876 807.124 100.017 853.553 146.447C899.983 192.876 936.812 247.995 961.94 308.658C987.067 369.321 1000 434.339 1000 500C1000 565.661 987.067 630.679 961.94 691.342C936.812 752.004 899.983 807.124 853.553 853.553C807.124 899.983 752.004 936.812 691.342 961.94C630.679 987.067 565.661 1000 500 1000L500 500L500 -1.43051e-06Z" stroke="black" stroke-width="150" mask="url(#path-1-inside-1_1_30)"/>
<mask id="mask0_1_30" style="mask-type:alpha" maskUnits="userSpaceOnUse" x="1000" y="0" width="501" height="1000">
<mask id="path-2-inside-2_1_30" fill="white">
<path d="M1500 1000C1434.34 1000 1369.32 987.067 1308.66 961.94C1248 936.812 1192.88 899.983 1146.45 853.553C1100.02 807.124 1063.19 752.004 1038.06 691.341C1012.93 630.679 1000 565.661 1000 500C1000 434.339 1012.93 369.321 1038.06 308.658C1063.19 247.995 1100.02 192.876 1146.45 146.446C1192.88 100.017 1248 63.1873 1308.66 38.06C1369.32 12.9327 1434.34 -8.40138e-05 1500 4.09307e-10L1500 500V1000Z"/>
</mask>
<path d="M1500 1000C1434.34 1000 1369.32 987.067 1308.66 961.94C1248 936.812 1192.88 899.983 1146.45 853.553C1100.02 807.124 1063.19 752.004 1038.06 691.341C1012.93 630.679 1000 565.661 1000 500C1000 434.339 1012.93 369.321 1038.06 308.658C1063.19 247.995 1100.02 192.876 1146.45 146.446C1192.88 100.017 1248 63.1873 1308.66 38.06C1369.32 12.9327 1434.34 -8.40138e-05 1500 4.09307e-10L1500 500V1000Z" stroke="black" stroke-width="150" mask="url(#path-2-inside-2_1_30)"/>
<line x1="1259.91" y1="520" x2="1475.09" y2="520" stroke="black" stroke-width="75"/>
</mask>
<g mask="url(#mask0_1_30)">
<circle cx="1500" cy="500" r="462.5" transform="rotate(90 1500 500)" stroke="black" stroke-width="75"/>
<rect x="1248" y="483" width="288" height="533" fill="black"/>
</g>
<line x1="450" y1="955.048" x2="450" y2="64.9529" stroke="black" stroke-width="50"/>
<line x1="382.5" y1="892" x2="382.5" y2="142" stroke="black" stroke-width="35"/>
<line x1="335.5" y1="845" x2="335.5" y2="194" stroke="black" stroke-width="15"/>
<line y1="-25" x2="890.095" y2="-25" transform="matrix(0 -1 -1 0 1525 945.095)" stroke="black" stroke-width="50"/>
<line y1="-17.5" x2="750" y2="-17.5" transform="matrix(0 -1 -1 0 1600 882.047)" stroke="black" stroke-width="35"/>
<line y1="-7.5" x2="651" y2="-7.5" transform="matrix(0 -1 -1 0 1657 835.047)" stroke="black" stroke-width="15"/>
</svg>
